<svg id="图层_1" xmlns="http://www.w3.org/2000/svg" viewBox="0 0 268.2 336.2" width="1994" height="2500"><style>.st0{fill:#6a005f}</style><path class="st0" d="M.1 0c17 9.9 39.4 16.9 66.3 17.2 27.5.3 50.8-5.1 67.7-15.7 17 10.6 40.6 16.1 67.8 15.7 26.3-.3 49.5-7.2 66.3-17 .3 39.5-.6 77.2-.6 116.6 0 39.1 2.1 79.6-7.9 109.5-4.9 14.7-12.2 26.9-20.5 38.5-8.1 11.4-18.2 21.4-29.1 29.7-11.3 8.6-24.3 14.7-37.6 21.4-11.4 5.7-22.8 11.6-33.8 17.6-1.5.9-3.4 1.4-4.5 2.9-6-4-12.4-7.2-18.9-10.6-6.5-3.3-13-6.7-19.5-10.1-6.7-3.4-13.4-6.4-19.8-9.7-6.4-3.4-12.1-7.3-17.8-11.6-22.3-17-39.4-39-49.6-68.3C3.4 211 1.9 193.7 1 174.9c-.9-18.5-.4-38.2-.4-57.4C.6 78.2 0 39.8 0 .4 0 .2 0 0 .1 0zm127.2 14C103.9 24.4 67 27.4 37.1 21.3c-9.4-1.9-17.9-4.4-25.3-7.8-1-.5-2.1-1.3-3.3-1.2-.3 36.4.7 74.1.7 109.1 0 18.2-.9 36.8-.2 54.2.8 17.3 2.7 33.6 7.5 47.7 4.7 13.8 10.9 25.7 18.7 36.6 11.6 16.2 25.6 29.7 43.4 39.3 6 3.2 12.3 6 18.7 9 12.4 5.8 24.9 11.9 37.3 18 12.3-6.1 24.9-12 37.2-18 6.3-3.1 12.7-5.7 18.6-8.9 11.8-6.3 21.9-14.7 30.8-24.2 13.4-14.1 24.3-31.6 30.9-51.9 9.3-28.6 7.3-64.8 7.3-101.4 0-36.9.1-73.2.4-109.5-1.1 0-2.2.7-3.3 1.2-7.7 3.4-16 6.2-25.2 8-21.7 4.2-48.4 3.6-68.8-.9-10.5-2.3-19.9-5.8-28.1-10-1.9 1.3-4.4 2.3-7.1 3.4z"/><path class="st0" d="M137.1 25.5c11.5 1.2 20.2 7.3 25.4 15.8.7 1.1 1.8 2.9 1.7 3.8-.2.9-.9 1.7-1.7 1.6-1.1-.1-1.5-1.6-2.3-3-4.4-7.7-11.5-13-21.7-14.8.5 2.3 1.5 4.6 2.4 7 .9 2.4 1.8 4.9 2.6 7.2.4.4-.1 1 0 1.6 1.8-.1 3.9-.1 3.6 2-.4 2.6-8.3.6-11.2 1.3-.3 2-.1 4.7-.1 7 1.6 1 9.2-.8 10.7.3.5.3.6 1.2.6 1.7-.4 2.9-8.1.5-11.2 1.3-.5 2.4.7 5.7-1.7 5.9-2.3.1-1.6-3-1.7-5.8-2.9-1-10.7 1.5-11.3-1.2-.8-3.9 8.4-1.1 11.2-2.2.3-1.9.3-4.9 0-6.9-2.6-1-10.6 1.3-11.2-1.3-.4-2 1.6-2.3 3.5-2.1.4-.4-.2-.9 0-1.4 1.9-4.6 3.4-9.6 5.3-14.2-12.3 1.7-20.1 9.1-23.9 19.6 1.3-.1 3.4-.8 6-1.3 2.8-.5 8.5-1.8 6.9 2.2-2.3.7-4.9.7-7.3 1.2-2.3.5-4.5 1.3-6.4 2-.4.7-.5 1.7-.6 2.7 2.1-.3 4.3-1.2 7-1.7 2-.3 7.9-1.8 7.3 1.4-.3 1.4-2 1.2-3.3 1.3-3.8.2-8.6 1.5-11.1 2.8-.1.5 0 1.7.2 2.3 2.3-.6 4-1.1 7-1.6 1.9-.2 6.3-1.5 6.8.6.6 3-4.6 2.1-7.2 2.6-2.7.5-4.4 1.3-6 1.8.6 1.4.6 3.2-.7 3.5-2.9.6-3.2-6.1-3.3-8.9-.1-4.2.5-7.9 1.3-10.8 3.8-13 13.9-21.3 28.7-23.5 1.1-1.6 1.1-4.7 3.1-4.5 1.7.3 1.5 3.3 2.6 4.7zm-1 6.7c-.5-1.2-1-3.9-2.3-3.7-2.4 5-4 10.8-6.2 16.2 1.2.1 3.5-.1 4.7 0-.9-4.8 4.6-5.1 3.5 0h4.9c-1.4-3.7-3.2-8.4-4.6-12.5zM66.5 38c.7.6-.2 1.4.1 2 2.1-.4 4.7 1.2 4.9 2.3.3 1.4-1.3 3-.9 4.9 3.5 2.2 4.4 7.1 8.4 8.9 1.7 3.3 2.9 8.2 2.1 12.7-.6 3.4-4 3.8-3.3 8.3.3 1.9 1.5 5.8 2.9 6.5.9.4 2.1-.1 3 .6.7.9.4 2.8-.2 3.6-2.8.5-3.8 3.4-7.2 2.3-1.3-.5-3.5-1.9-4.2-3-.4-.7-.4-1.7-.7-2.4-.7-1.6-2-2.6-2.7-3.8-2.1.6-8.5-.4-7.4 2.9.5 1.5 5.5.7 3.9 4.6-.6 1.3-4.9 3.2-6.6 3.6-.6.1-1.6.2-2 .1-.5-.1-1-.6-1.7-.7-1.4-.3-3.2.3-4.7 0-.9-.2-3.4-1.9-4.3-2.7-.6-.5-1.8-2-2-2.6-.7-1.6-.2-2.9-1.9-3.6-.7-.3-1.7-.2-2.5-.4-1.5-.4-3.2-1.6-4.4-.7-1.6 1.7.9 2.5 1.7 4 .8 1.4.3 2.5.5 4.6-.5.7-1.6 1.9-2.9 2.2-1.7.3-4.1-1-6.5-1.6-1.6-.4-3.9-.4-4.3-2-.2-1 .8-1.6 1-2.5.3-1.1-.3-2 .4-3-1.1-1.7-.6-4.3-.7-7.3-.1-3.3-.1-5.5.7-7.9.3-.9.3-1.8.6-2.3.4-1 3.4-3.4 4.6-4 2.7-1.5 7.2-2.7 12-2 1 .1 1.9 1 2.9 1.1 1.8.3 4.3-.2 6.2 0 .6-.3 1.1-.7 1.4-1.3.2-3.1-1.6-4.3-2.4-6.5.4-3.1-.5-6.7.6-9.7.3-.8 1.7-3.2 2.5-4.1.7-.8 2.2-2 3.1-2.2 1.6-.3 4.4.6 6 1.2.8-.6 2.8-.6 4-.1zm-8.4 6.5c1.4.3 2-1.4 2.6-2.3-.4-.7-.2-2-1.2-2 .1 2-.9 2.9-1.4 4.3zm-5.3-.7c.2.2.6.2 1 .2.4-.9.5-2 1-2.7-1.3-.4-2.1 1.5-2 2.5zm9 .5c-1.3 1-3.8 2-3 4.2.1 0 .3 0 .3.1 1.6-.5 2.1-2.2 3.3-3.3 1-.9 2.9-1.4 2.7-3.4-1.7-.6-2.3 1.5-3.3 2.4zm0 6.7c0 .1.3.3.3.4.5.3.9-.3 1.5-.4 1.2-.1 2 .6 2.7.6.7-.7.1-1.9-.7-2-.9 1.5-4.3-1.3-3.8 1.4zm9.2-1.4c-.7-.1-1 .7-1 1.3.1 1 1.9 2.1 2.9 2-.4-.6-1.2-3.2-1.9-3.3zm-12.5 2.1c-1.2.5-1.8 1.5-2.1 2.8 1 .4 1.1-1 2-1.1 1 .5 1 2 2 2.4.3.4 1.5-.2 1.6.4 0 .8-1.2.8-2 1.2-.9.4-2.4 1.7-3.7 2.5-2.3 1.3-5.3 3-1.9 4.5.4-.3 0-1 .2-1.4.3-.7 3.1-2.7 3.4-2.7.6-.1 1.2.3 1.8.2 1.5-.2 1.8-1.6 3.1-2.2.8.2 1.7.3 2.8.3 1.3.5.6 2.9 2.1 3.2.7-1 .2-2.3 1-3.2-.1-.9-1-1.2-.9-2.3.2-.6.9-.7 1.4-.9 1.4 1 1.1 3.6 2.4 4.6 1.2-.7 1.5-3.3.7-4.6-.6-1-2.6-1.4-3-2.2-3.3 0-5.9.8-8.5 1.6-1-.6-1.4-2.1-2.4-3.1zM75 60.9c1.1-.6.5-2.8-.7-2.9-.5.9-.5 2.9.7 2.9zm-13.5 1.3c.3.8 1.5.6 1.7 1.4-.4 1.6.9 2.4 1.2 3.8-.9 1.2-2.2.1-2.6-.7-.6.1-1 .4-1 1.1 3.3.2 1.5 4-.6 4.7-.6.3-1.5 0-2.2.2-.8.2-1.5 1.1-2.4 1.4-1.4.5-2.6.1-3.4.7-.4 1.7-.2 3.8 1 3.7 1.2-.1 1.2-2.5 2.4-2.9 1.8.3 1.6-1.1 2.6-1.4.5-.2 1.1.2 1.8 0 2-.6 2.5-3.1 3.7-4.6 3.2.4 4-2.4 4.1-4.7-1.8.3-4 .6-4.3-1-.2-1.1.9-1.6 1.2-2.7-.7-1.5-3-.3-3.2 1zm-26.6.4c-.6 0-.5-.8-1.3-.6.1 1.1-.9 1.1-1.2 1.7.2.8 1.2.8 1.4 1.5 2.3-.1 2.9-1.7 4.8-2-.3-2.7-2.3-1.4-3.7-.6zm7-1c-.5.8.1 2.2.8 2.6 1.4-.6.9-2.8-.8-2.6zm7.4 5.9c.6-.7.3-2.6-.7-2.6-.4.6-.6 2.9.7 2.6zM26.2 69c.9.5 3 .7 3.7-.2-.5-1-.5-1.8-.4-2.7-1.4.6-2.8 1.3-3.3 2.9zm23.8.6c1.2.2 3.5.5 3.8-.7-.6-1.4-4-1.3-3.8.7zm-16.2 2.8c-.6.1-.4-.8-1-.7-.8 0-.8.9-1.6 1-.3-.1-.5-.3-1-.3-.3.3-.8.4-.7 1.1.7-.3 1-.2 1.6.2.2-.3.2-.8.7-.8-.1 2.1-1.4 4.3-3.9 4.5-.2 1.1-1 1.7-1.7 2.3-.6 2.6.2 5.1 2.7 5.1.2-.5.1-1.2.2-1.9-.7-.7-1.4-1.4-1.1-3.1.4-.3.9-.6 1.7-.6 1.1-1 2-2.2 2.7-3.7-.5-1.6 1.2-2.7 1.9-1.4 0 .4-.5 1.2.3 1.1.6-.2 0-.6 0-1 .7-.9 2.3-1 2.7-2.2-1.1-1.7-2.3-.1-3.5.4zM26.9 75c.8-.7 1.1-2.2.6-3.3-1.4 0-1.7 2.7-.6 3.3zm18.4.4c.1.5 1.2.3 1.6.2 0-.2.1-.3.2-.4-.2-.3-.6-.6-1-.7.1.6-.8.3-.8.9zm12.2 1.7c-.6.3-1.1.4-1.4 1-.2 1 .4 2.7-.5 3-1.4-1-2.4-.2-3.3.7-.7-.1-.9-.8-2-.6-.1.5-.5 2.2.3 2.3.8-.2-.4-1.5.6-1.5.3.7.7 1.1 1.1 1.6-.1 1.1-.4 3.2.2 4 1.7-.5.1-4.3 2.2-4.5.7.4.5 1.7.6 2.7.6.3 1.4 1.2 2.4 1.3 1.2.1 3.3-.3 3.7-1.1-.7-.6-2-.6-2.6-1.3-.2-.2-.2-.7-.2-1.1-1.4-1-2.1-3.3-1.4-5.5.2-.7 1.6-1.7.4-2.4-.2.4-.1 1-.1 1.4zm-26.7 8.3v.4c1.3-.1 1.6 1.4 2.6 1-.3-.9-1.5-1.6-2.6-1.4zM236 81.3c-1.4-.9-3.2.4-4.6.7-1.7.4-3.3.4-4 1.9-.3.7-.2 1.5-.4 2.1-1.2 2.8-3.9 3.5-6 5.3-1.4.3-3.1-.3-4.9 0-1.2.2-1.7 1-3.6.6-2.7-.5-6.3-2.2-6.9-3.7-1.1-2.9 2-3.3 3.9-4.1.5-2.9-1.6-2.4-4-2.7-1.2-.2-2.5-.6-3.2-.5-.6.2-2.4 2.4-3 3.8-.3.7-.3 1.6-.6 2.3-.9 1.7-4.1 3.5-6 3.4-2.4-.1-2.8-2.2-5.5-2.5-.6-1.2-.8-2.9 0-3.6.7-.6 2.5-.3 3.3-.9 1-.7 3.2-6.4 2.4-9.2-.5-1.8-2.8-3.3-3.2-4.7-.1-.5-.2-1.7-.2-2.5 0-3.5.1-8.2 2.2-10.7.9-1.1 2.4-1.6 3.5-2.7 1.9-2.1 2.2-5.4 5-6.1-.1-2-.6-3.4-1-5.1 1.1-1.3 2.2-2.6 4.9-2.3.5-.6-.6-1.4.1-2 1.1-.4 3.2-.5 4 .2 1.5-.6 3.2-.9 4.9-1.2 3-.5 4.6 2.5 5.7 4.5.8 1.4 1.5 2.2 1.7 4.4.1 1 0 2.3 0 3.6 0 1.1.1 2.5 0 3.3-.5 2.8-4.6 6-1 7.9 1.9-.2 4.1.4 6.1 0 1.1-.2 2.1-1 2.7-1.1 2.2-.4 4.8-.2 6.5 0 4.2.6 7.5 3.3 10.2 5.7.1 1.7 1.3 3.1 1.6 5 .4 3 .3 7.7-.1 10.6-.2 1.5-.8 2.9-.3 5 .2 1 1.1 1.5 1 2.3-.1 1.9-2.5 1.9-4.6 2.4-3.6 1-7.4 2.8-9-.8.1-2.1-.2-3.2.6-4.6.9-1.6 3-2 1.8-4zm-23.1-36.8c.1-.9-1-1.1-1.3-2-.3-.8.3-1.8-.5-2.5-1.7 1.3-.2 4.8 1.8 4.5zm4.2-.5c.5.1.9-.1 1.1-.3-.2-1.3-.7-2.2-1.8-2.6-.3.9.6 1.9.7 2.9zm-11.3-2c.1 2.4 2.2 2.6 3.5 3.9 1 1.1 1.3 2.5 2.6 2.7 1.5-1.8-1.3-3.8-2.8-4.4-.8-1-1.6-2.7-3.3-2.2zm-4.8 8.6c0-.3-.5-1.1-1.1-1-.6.1-1.8 3-1.8 3.3 1.1.1 3-1.4 2.9-2.3zm6-.4c-.7.1-1.4-.7-2-.6-.6.2-1.4 1.8-.3 2 .6-.4 3-.9 3.9 0 .9-.6.5-1.5-.3-2-.6 0-.6.5-1.3.6zm5.7 1.5c-1.4.6-1.5 2.6-2.9 3.3-2.4-1-5.1-1.6-8.4-1.6-.4 1-2.8 1.4-3.1 2.7-.4 1.4 0 3.2.7 4.1 1.7-.7 1.9-6.8 4.2-3.4-.2.8-.9 1.3-1 2.2 1 .6.4 2 .9 3 1.8 0 1-2.5 2.2-3 .9-.2 2.1-.2 3-.5 1.4 1 2.4 2.8 4.8 1.9 1.3 1.3 3.7 1.8 3.5 4.1 1.1 0 1.8-1.2 1.7-1.8-.1-1.4-3-2.5-4.4-3.3-.8-.5-1.5-1.2-2.3-1.6-1-.5-2.3-.4-2.4-1.4.1-.5 1-.2 1.4-.2 1.1-.5 1.1-2.1 2.2-2.6.7.1 1.1 1.4 1.8 1.1-.1-1.1-1-2.4-1.9-3zm-17.4 8.5c1 1.8 2.1-.8 1.4-2.1-1.1 0-1.2 1.1-1.4 2.1zm10.8 1c.4 1 1.2 1.6 1.2 2.8-.6 1.6-3 .9-4.4 1 .3 2 .7 5.1 4.1 4.5 1.1 1.7 2 3.6 3.8 4.7 2.5-1 2.3 1.5 4.4 1.4 1.3.4 1.2 2.8 2.4 2.9 1.4.1 1.5-2.5 1-3.9-1.2-.5-2.3-.1-3.6-.6-.6-.2-1.1-1.1-1.7-1.3-1-.3-2 .1-2.9-.3-1.2-.5-2.2-2.3-2.2-3.9.3-.7 1.6-.3 1.8-1.2-.1-.5-.4-.7-.9-.8-.5.8-1.9 2-2.7.6.6-1.2 1.5-1.9 1.3-3.9.4-.5 1.4-.3 1.6-1.1 0-1.3-2.4-2.2-3.2-.9zm26 1.9c1.9.4 2.7 2 4.9 2.1.2-.7 1.4-.7 1.5-1.5-.4-.6-1.4-.6-1.3-1.7-.9-.2-.6.7-1.4.6-1.3-1-3.1-1.8-3.7.5zm-3.8 1.1c.6-.5 1.3-1.5.9-2.6-1.9-.2-2.5 2.2-.9 2.6zm-6.3.7c-.6.4-1.1 1.9-.4 2.6 1.4.3 1.5-2.4.4-2.6zm18.9 4.1c.9.6 2.6.4 3.8.1-.4-1.7-1.8-2.4-3.3-3 0 .9-.1 1.8-.5 2.9zm-23.7.2c.5.8 2.6.7 3.6.4.4-2.1-3.5-2.2-3.6-.4zm16.4 2.9c.7.9 2 1.2 2.7 2-.1.3-.3.7 0 1 .9-.1.4-.7.3-1.3 2.2-1.6 1.9 2.2 2.8 3.6.6.9 1.4 1 1.8 1.7.5.1 1.1.2 1.6.3 1.2 2.2-2 3.2-.7 5.3 3.2.4 3.7-5.3 1.3-6.2 0-.5-.2-.7-.3-1-2.4-.3-4.1-2.8-3.9-4.7.5 1.1 1.4.2 2.3.7-.1-.6-.5-.9-1-1.1-.4 0-.6.3-1 .3-.4-.3-.6-.8-1.3-1-.6 0-.5.8-1.3.7-.9-.8-2.5-2-3.3-.3zm10.6 2.8c.8-.8.5-3.1-.7-3.2-.7.9-.5 2.8.7 3.2zm-20.2.5c.3.3.9.3 1.6.3 0-.2 0-.3.2-.5-.6-.3-1.8-1.2-1.8.2zm-10.2 3c-.3 1.4 0 2.5-.2 4-.7.7-1.5 1.2-1.4 2.4-.7.7-2.3.6-2.7 1.6 1.8 1 5 1.1 6.2-.5.2-1-.2-2.6.9-2.7 1.8.4.2 4.1 2 4.5.5-.9.3-3.2 0-4 .7-.4.7-1.4 1.6-1.6.1.5-.3 1.5.3 1.5.6-.3.5-1.8.2-2.3-1.2-.3-1.2.6-2.2.6-.5-1.4-2-1.5-3.3-.7-.5-.9-.2-1.8-.3-3.1-1.1-.4-1.4-1.5-1.8-2.2-.6 1.1.3 1.9.7 2.5zm23.8 8.6c1-.3 1.8-.9 2.5-1.4-.9-.6-2.5.2-2.5 1.4z"/><path class="st0" d="M162.3 49c.9-.1 1.1-1.1 2.3-1 1.8.1 2.2 5 2.4 7.4.3 4.3-.1 15.7-4.3 11.9-.1-.9.1-1.6.3-2.2-2-1.2-6.1-2.1-9.6-2.4-1.8-.1-4.3.1-3.6-2.3.6-1.9 5.1-.7 6.9-.5 2.9.5 4.5 1 6.7 1.6.5-.4.2-1.5.4-2.2-1.7-1.2-7.3-2.7-11-3-1.8-.1-3.6.1-3.6-1.7 0-.8.6-1.1 1.2-1.6 5.2.1 9.3 1.1 13.2 2.4 1.1-3.6-3.7-4.1-6.3-4.7-2.7-.6-5.4-.7-7.4-1-1.2-.6-1.1-3 .7-3 3.3.1 9.6 1.3 11.7 2.3zM140.5 89.8c-3.2-4.2 7-3.7 8.3-5.9-1.4-.7-3.4-1.1-5.3-1.3-1.9-.3-3.9-.5-5.7-.5.1 2.9 1.4 7.8-1.7 8.6-2.2.6-8.9-.1-9.2-1.6-.7-3.5 5.1-1.2 7.7-1.6.7-1.5.1-4.1-.4-5.5-5.1-.4-10.1.6-14.3 1.5 1.3 2 5 1.5 5.3 3.4.7 4.3-6.7-.1-7.7-.7-4-2.3-7-5-9.9-8.9-1.1-1.5-3.5-4.4-3.3-6 .2-1.5 3.5-2.4 5.7-3 12.9-3.5 27.8-4.8 42.1-1.9 1.9.4 4.2 1.1 6.4 1.9 1.9.6 5.4 1.4 5.6 2.7.3 1.8-3 6-3.8 7-3.3 4.4-6.6 7.1-11.7 9.4-2.3 1.2-5 2.4-8.1 2.4zm-32.3-17.4c1.9 3.7 4.7 6.5 7.8 9 2.1-.7 4.3-1.4 6.8-1.7-1-.9-2.2-1.4-3.5-2.4-1-.7-2.8-1.8-2.7-3.3.1-1.6 3.5-2.4 5.7-2.9 7.5-1.7 16.4-1.5 23.5.1 2.2.5 6 1.1 6 2.9 0 1-1.7 2.5-2.6 3.1-1.2 1-2.6 1.1-3.4 2.4 2.7.2 4.7 1 6.9 1.7 3.2-2.3 5.7-5.3 7.4-9-13.6-5.6-38-5.2-51.9.1zm13.5 2.5c5.6 4.9 19.2 4.9 24.8 0-6.6-2.2-18.1-2.2-24.8 0zM38.8 174c0-.3-.1-.7-.3-1.3-.2-.6-.3-1-.5-1.1-.2-.4-.7-.6-1.4-.7-.7-.1-1.5-.2-2.6-.2H18.9v-1.3l17-12.6H25.1c-1.2 0-2.1.1-2.7.2-.7.1-1.1.3-1.4.7-.2.2-.4.7-.6 1.4-.2.7-.3 1.1-.3 1.4h-1V152h1c.1.3.1.7.3 1.3.2.6.3 1 .4 1.2.3.4.7.6 1.2.7.6.1 1.5.2 2.9.2h10.2c.4 0 .9-.1 1.3-.3.5-.2.8-.3 1.1-.6.3-.4.6-.9.8-1.4.2-.6.3-1.1.4-1.5h1v6L24 169.1h9.9c1.2 0 2.2 0 2.8-.2.7-.1 1.1-.4 1.3-.7.2-.3.4-.7.5-1.3s.3-1.1.3-1.4h1v8.5h-1zM20.8 197.7l-.9-8.6 1-.1c.1.7.3 1.4.5 1.9s.4.7.6.7c.1 0 .2 0 .3-.1.1 0 .2-.1.3-.1l4.5-2.2-.7-7.3c-.7-.2-1.3-.4-1.8-.5-.5-.1-1-.3-1.4-.3-.5-.1-.8-.1-1.1-.2h-.6c-.4.1-.6.3-.8 1-.1.6-.2 1.3-.2 2.1l-1 .1-.8-7.8 1-.1c.1.2.1.6.3 1 .1.3.3.6.5.9.3.4.6.6.9.9.3.2.7.3 1.2.5 2.7.8 5.7 1.6 9.1 2.6 3.4.9 6.3 1.7 9 2.5l.1 1.1-17.2 8.7c-.3.1-.7.3-.9.6-.2.2-.4.5-.6.9-.1.2-.2.5-.2.9-.1.4-.1.7-.1.9h-1zm7.6-9.1l7.7-3.9-8.3-2.3.6 6.2zM45.5 219.4c-.1-.2-.2-.7-.5-1.2s-.5-.9-.7-1.1c-.3-.3-.8-.4-1.5-.4s-1.6.2-2.6.4l-14.9 3.3-.3-1.2 13.9-16-10.5 2.3c-1.2.2-2 .5-2.6.8-.6.3-1 .6-1.2 1-.2.3-.3.8-.3 1.5-.1.8-.1 1.2 0 1.4l-1 .3-1.9-8.3 1-.2c.1.3.3.7.6 1.2.3.6.5.9.7 1 .3.3.8.4 1.4.4.6 0 1.5-.1 2.9-.4l10-2.2c.5-.1.9-.3 1.3-.5.4-.3.7-.6.8-.8.3-.4.4-1 .5-1.6.1-.7.1-1.2 0-1.5l1-.2 1.3 5.8L30 218l9.6-2.2c1.2-.3 2.1-.5 2.7-.8.6-.3 1-.6 1.1-.9.1-.3.2-.8.2-1.4v-1.4l1-.3 1.8 8.3-.9.1zM52 231.6c-.2-.2-.4-.5-.6-.8l-.7-.7c-.3-.2-.6-.4-.8-.3-.3 0-.6.1-.9.3l-10.7 6.1c-.6.3-1.2.6-2 .7-.7.1-1.5.1-2.2 0-.8-.2-1.6-.5-2.4-1-.7-.5-1.3-1.3-1.8-2.1-.8-1.3-1.1-2.7-.8-4 .3-1.3 1.1-2.3 2.4-3.1.5-.3 1.1-.5 1.8-.5.6.1 1.1.4 1.4 1 .2.5.3 1 .2 1.4-.1.5-.4.9-.8 1.1-.3.2-.6.3-.9.3-.3.1-.6.1-.9.1h-1.9c-.2.3-.3.7-.3 1.3 0 .5.2 1 .5 1.7.4.6.9 1 1.3 1.3.5.2 1.1.3 1.6.2.5-.1 1.2-.2 1.9-.5s1.4-.6 2.2-1.1l9.5-5.5c.3-.2.5-.4.6-.5.2-.2.2-.5.2-.9 0-.3-.1-.7-.3-1.2-.2-.4-.3-.7-.5-1l.9-.5 4.6 7.9-.6.3zM44.7 255.4L39 248l.8-.6c.2.2.5.5.8.9.3.3.6.6.8.7.3.2.6.2.8.2.3-.1.6-.2.9-.4l12-9.2c.3-.2.5-.4.6-.6.1-.2.1-.5 0-1-.1-.3-.2-.7-.4-1.1-.2-.4-.4-.7-.5-1l.8-.6 5.7 7.4-.8.6c-.2-.2-.4-.5-.7-.8-.3-.3-.6-.6-.9-.7-.3-.2-.6-.3-.9-.2-.3.1-.6.2-.8.4l-11.9 9.2c-.2.2-.4.4-.6.7-.1.3-.1.6-.1 1 .1.2.2.5.4.9s.4.8.6 1l-.9.6zM80.4 262.8c-.2-.2-.6-.4-1.1-.7-.5-.3-.9-.4-1.2-.5-.4-.1-.9.1-1.5.5-.5.5-1.2 1-1.9 1.8l-10.5 11-.9-.9 2.6-21-7.4 7.7c-.8.9-1.4 1.6-1.8 2.2-.3.6-.5 1.1-.4 1.5 0 .4.2.8.6 1.4.4.6.6 1 .8 1.2l-.7.7-6.2-5.9.7-.7c.2.2.6.4 1.1.7.6.3 1 .5 1.2.5.5 0 .9-.1 1.4-.5.5-.3 1.2-.9 2.1-1.9l7.1-7.4c.3-.3.5-.7.7-1.1.2-.4.3-.8.2-1.2 0-.5-.2-1-.5-1.6-.3-.6-.5-1-.8-1.3l.7-.7 4.3 4.1-2.4 19.5 6.8-7.1c.8-.9 1.4-1.6 1.8-2.2.3-.6.4-1.1.4-1.4-.1-.3-.3-.8-.6-1.3s-.6-.9-.8-1.2l.7-.7 6.1 5.8-.6.7zM92.2 284.2c-.2-.1-.5-.2-.9-.4s-.7-.3-.9-.3c-.4 0-.6 0-.9.2-.2.1-.4.4-.7.7l-.9 1.3c-.6 1-1.1 1.6-1.3 2-.2.4-.4.6-.5.8-1.4-.2-2.8-.6-4-1-1.2-.5-2.4-1-3.4-1.7-1.1-.8-2-1.7-2.7-2.8-.8-1.1-1.2-2.3-1.5-3.5-.2-1.4-.2-2.7.1-4.1.3-1.4.8-2.8 1.8-4.1.8-1.3 1.9-2.4 3.1-3.2 1.2-.8 2.5-1.4 3.8-1.7 1.3-.3 2.7-.3 4 0 1.4.3 2.7.8 3.9 1.6 1 .7 1.8 1.4 2.3 2.1.5.7 1 1.4 1.3 2.1l1-.5 1 .7-4 6.1-1-.7c.3-.8.5-1.5.6-2.4.2-.8.3-1.6.2-2.4-.1-.8-.3-1.5-.6-2.2-.3-.7-1-1.3-1.7-1.8-.9-.6-1.8-.9-2.7-1-.9-.1-1.9 0-2.8.4-1 .3-1.9.9-2.8 1.8-1 .8-1.9 1.8-2.7 3-.7 1.1-1.3 2.2-1.7 3.4-.4 1.1-.6 2.3-.6 3.3s.3 2.1.7 3c.5.9 1.2 1.7 2.1 2.3.7.5 1.4.8 2.2 1 .7.2 1.3.3 1.7.2.4-.4.7-.7 1-1.2.3-.4.6-.8.7-1.1l.6-1c.3-.3.4-.7.5-1 .1-.3.1-.7-.2-1-.2-.3-.5-.7-.9-1-.5-.4-.8-.7-1-.8l.6-1 7.6 5.1-.4.8zM144.3 287.6c-.3 0-.6.1-1.2.2-.5.1-1 .2-1.3.5-.3.2-.6.7-.7 1.4-.1.7-.2 1.5-.2 2.6v9c0 1.1-.2 2.1-.7 3-.5.9-1.1 1.6-1.9 2.1-.7.5-1.6.9-2.4 1.1-.9.3-1.6.4-2.4.4-1.2 0-2.4-.2-3.3-.5-1-.3-1.8-.8-2.5-1.3-.6-.6-1.1-1.2-1.4-1.9-.4-.7-.5-1.5-.5-2.2v-12.2c0-.4-.1-.7-.2-.9-.1-.2-.3-.5-.7-.6-.2-.2-.5-.3-.9-.4-.4-.1-.7-.1-.9-.1v-1.1h8.6v1.1c-.3 0-.6 0-1 .1s-.7.2-.9.2c-.4.1-.6.3-.7.6-.1.3-.2.6-.2 1v11.4c0 .5.1 1.1.2 1.7.1.6.4 1.2.7 1.7.4.5.9 1 1.6 1.3.7.3 1.5.6 2.7.6 1.1 0 2-.2 2.7-.6.7-.3 1.3-.7 1.7-1.3.4-.5.7-1.1.9-1.7.1-.6.2-1.1.2-1.7v-8.5c0-1.1-.1-2-.2-2.7-.2-.7-.4-1.1-.7-1.4-.4-.2-.9-.4-1.4-.6-.6-.1-1.1-.2-1.4-.2v-1.1h8.5l-.1 1zM168.4 277c-.2.2-.6.4-1 .7-.5.4-.8.7-1 .9-.2.3-.2.9-.1 1.5.1.7.4 1.5.8 2.5l6.1 13.9-1.2.6-18.3-10.6 4.3 9.8c.4 1.1.9 1.9 1.3 2.4.4.6.8.9 1.2 1 .3.1.8.1 1.5 0s1.2-.2 1.4-.3l.4 1-7.8 3.4-.4-1c.3-.1.6-.4 1.1-.8.5-.4.8-.7.9-.8.2-.4.2-.9.1-1.5s-.4-1.4-1-2.7l-4.1-9.4c-.2-.4-.4-.8-.7-1.1-.3-.3-.6-.6-1-.7-.4-.1-1-.2-1.6-.2-.7.1-1.2.1-1.5.3l-.4-1 5.4-2.4 17 9.8-3.9-9.1c-.5-1.1-.9-1.9-1.3-2.5-.4-.6-.8-.9-1.1-.9-.3-.1-.8-.1-1.4 0-.6.1-1.1.2-1.4.3l-.4-1 7.7-3.3.4 1.2zM189.2 289.1l-8.4 4.1-.5-.9c.2-.1.6-.3 1-.6s.7-.5.8-.6c.2-.3.4-.6.4-.8 0-.3 0-.6-.2-.9l-6.7-13.5c-.1-.3-.3-.6-.5-.7-.2-.1-.5-.2-1-.2-.3 0-.7.1-1.1.2-.5.1-.8.2-1.1.3l-.5-.9 8.4-4.1.5.9c-.3.1-.6.3-.9.6-.3.2-.7.5-.9.7-.3.2-.4.6-.4.9 0 .2.1.5.2.8l6.6 13.5c.1.3.3.5.6.7.2.2.5.2.9.2.2 0 .6-.1 1-.2s.8-.2 1.1-.3l.7.8zM199.4 256.4c-.2.2-.4.5-.6.7-.2.3-.3.6-.4.9-.1.4-.2.7-.1 1.1.1.3.1.8.2 1.2.5 1.7 1.2 4.2 2.2 7.5 1.1 3.4 2.1 6.9 3.2 10.6l-.9.7c-3.5-2-6.8-4-10-6-3.2-1.9-5.4-3.2-6.5-3.9-.3-.1-.6-.3-.9-.3h-1c-.3.1-.6.1-.9.3-.3.1-.6.3-.8.4l-.7-.8 6.7-5.3.7.8c-.6.5-1 1-1.3 1.3-.3.4-.4.7-.2.9l.3.3c.1.1.2.2.3.2.9.5 2.3 1.3 4.3 2.5 2 1.3 4.8 2.9 8.5 5.1-.6-1.9-1.2-4.1-2-6.6s-1.4-4.2-1.7-5.2c-.3-.9-.5-1.5-.7-1.8-.2-.3-.3-.6-.5-.7-.1-.2-.4-.3-.6-.2-.3 0-.5.1-.9.2-.3.1-.6.3-1 .5-.3.2-.5.3-.8.5l-.7-.8 6.1-4.8.7.7zM222.6 249.7l4.4 4.2-11 13.2-.8-.6c.2-.2.4-.6.7-1 .2-.4.4-.7.4-.9.1-.3.1-.6 0-.8-.1-.3-.3-.5-.6-.7l-11.5-9.6c-.2-.2-.5-.3-.8-.4-.2-.1-.5-.1-.9.1-.3.1-.5.3-.9.6s-.6.5-.9.7l-.8-.6 10.3-12.4 3.8 3.2-.7.8c-.7-.3-1.6-.5-2.6-.5-1.1 0-1.8.2-2.3.5-.2.2-.5.5-.8.7-.3.3-.6.7-1 1.1l-2 2.5 6.3 5.3 1.5-1.8c.5-.6.8-1 .9-1.4.1-.4.1-.8 0-1.1-.1-.4-.2-.7-.5-1.2-.3-.4-.5-.8-.8-1.1l.7-.8 6.2 5.2-.7.8c-.4-.2-.9-.5-1.4-.7-.5-.2-.9-.3-1.2-.3-.5 0-.9.1-1.2.3-.4.2-.7.6-1.1 1.1l-1.5 1.8 4.8 4c.5.4.9.7 1.2.9.3.2.7.2 1 .2.3-.1.6-.3 1-.6.3-.3.7-.8 1.2-1.4.2-.2.5-.5.8-1 .4-.3.6-.7.8-1 .2-.3.4-.7.6-1.1.2-.3.2-.6.2-.9 0-.7-.3-1.5-.7-2.5-.4-1-.8-1.6-1-2l.9-.8zM239.9 230.3l-2.7 4.8c-2.3.2-4.3.4-6 .6-1.7.2-3.5.4-5.4.7l-1 1.9 5.8 3.1c.3.2.6.3.9.3.3 0 .6-.1.9-.3.2-.1.3-.4.6-.7.3-.3.5-.7.6-1l.9.5-4.2 7.7-.9-.5c.1-.2.2-.5.4-1 .2-.4.2-.7.3-.8 0-.3 0-.6-.2-.8-.2-.2-.4-.4-.7-.6L216 237l-.9-.3c-.3-.1-.6.1-.9.3-.2.2-.4.5-.7.8-.3.3-.5.6-.6.8l-.9-.5 4.6-8.5c.4-.8.9-1.5 1.4-2 .5-.6 1.1-1.1 1.8-1.5.6-.4 1.3-.5 2.1-.5.7 0 1.5.2 2.2.6.7.4 1.3.9 1.7 1.4.4.5.7 1 .9 1.7.2.6.2 1.2.2 1.9-.1.6-.2 1.4-.3 2.1 1.7-.2 3.1-.5 4.3-.6 1.1-.2 2.5-.4 4.2-.6.7-.1 1.3-.2 1.7-.4.4-.2.8-.4 1.1-.6.3-.2.5-.4.7-.7.2-.3.4-.6.5-.7l.8.6zm-17.3-.6c-1.1-.6-2.2-.8-3.2-.5-1 .3-1.8 1-2.4 2.2l-1.2 2.2 7.9 4.2.9-1.7c.6-1.2.8-2.4.5-3.6-.4-1.2-1.2-2.1-2.5-2.8zM234.5 212.5c.6-.3 1.2-.5 1.8-.5.6-.1 1.3 0 2 .2 1.8.4 3.1 1.5 3.9 3.1.8 1.6 1 3.4.4 5.3-.2.8-.6 1.8-1.1 2.6-.5.9-1.1 1.5-1.6 2l.9.9-.3 1.2-6.9-1.6.3-1.1c.9 0 1.7-.1 2.5-.3.8-.1 1.5-.3 2.2-.7.7-.4 1.3-.9 1.8-1.4.5-.6.9-1.3 1.1-2.2.2-.6.2-1.3.2-1.8 0-.6-.2-1-.4-1.4-.2-.4-.6-.7-.9-1-.4-.2-.9-.4-1.4-.6-.8-.2-1.6-.2-2.4.1-.8.3-1.5.9-2.1 1.7-.4.6-.9 1.2-1.4 1.9-.5.7-1 1.3-1.4 1.9-.8 1-1.7 1.6-2.7 2.1-1 .4-2.2.5-3.5.1-.8-.2-1.4-.6-2.1-1.1-.6-.5-1-1-1.4-1.8-.4-.7-.6-1.4-.7-2.2-.1-.9 0-1.7.2-2.5.3-.9.6-1.7 1.1-2.4.5-.7 1-1.3 1.5-1.7l-.9-.9.3-1.2 6.7 1.6-.3 1.2c-.8 0-1.6 0-2.4.1-.8.1-1.5.2-2.2.5-.7.3-1.2.7-1.7 1.2s-.8 1.1-1.1 2c-.2.9-.1 1.8.3 2.5.4.8 1.1 1.3 1.9 1.5.9.2 1.6.2 2.3-.1.7-.2 1.3-.7 1.9-1.4.5-.6 1-1.2 1.4-1.8.4-.6.9-1.2 1.3-1.7s.8-1 1.2-1.4c.7-.2 1.2-.6 1.7-.9zM246.9 198.8l-1.3 9.3-1-.1c0-.3.1-.7.1-1.2.1-.5 0-.8 0-1.1-.1-.3-.2-.6-.4-.7-.2-.2-.5-.3-.9-.3l-14.9-2h-.8c-.2.1-.5.3-.7.7-.1.3-.3.6-.5 1s-.3.8-.4 1.1l-1-.1 1.3-9.3 1 .1v1.1c0 .4 0 .8.1 1.1.1.3.2.6.5.8.2.2.5.3.8.3l14.9 2.1c.3.1.6 0 .9-.1.3-.1.5-.3.7-.7.1-.2.3-.5.4-.9.2-.5.3-.9.3-1.2l.9.1zM233.7 174.1l-.1 1c-.4.1-.8.2-1.3.5-.5.2-1 .5-1.4.7-.4.3-.8.6-1.2 1-.4.3-.6.6-.6 1-.1.3-.1.7-.2 1.1 0 .5-.1.9-.1 1.3l-.1.9 16.6.6c.3 0 .6 0 .9-.2.3-.1.5-.4.6-.7.1-.2.2-.5.4-1.1.1-.6.2-1 .2-1.3h1l-.4 9.8-1-.1c0-.2-.1-.7-.1-1.3 0-.6-.1-.9-.2-1.2-.1-.3-.3-.6-.5-.7-.2-.2-.6-.2-1-.3l-16.7-.6v3.3c0 .3.2.7.5 1.1.3.3.7.7 1.1 1 .4.3.9.6 1.4.9.5.2.9.4 1.2.5l-.1 1-5.6-.2.7-18.1 6 .1zM229.4 151.4c0 .1.1.4.2.8.2.3.3.6.4.8.2.4.4.6.5.8.1.1.5.4 1 .8 1.1.8 2.2 1.5 3.2 2.2 1.1.6 2.5 1.4 4.1 2.4.6.4 1.1.7 1.5.7.4.2.9.2 1.6.2l4 .1c.4 0 .7-.1 1-.2.2-.1.4-.4.6-.7.1-.2.2-.6.3-1.1.1-.5.2-.9.2-1.2h1.1l-.2 9.7-1-.1c0-.3-.1-.6-.1-1.2 0-.5-.1-.9-.2-1.1-.1-.4-.4-.6-.6-.7-.3-.2-.6-.2-1-.2l-5.1-.1c-.2-.1-.4.1-.9.2-.4.2-.9.4-1.4.6-1.2.6-2.4 1.2-3.7 1.9-1.3.7-2.5 1.3-3.4 1.8-.6.3-1 .5-1.3.9-.3.2-.5.5-.8.8-.1.2-.3.5-.3.9-.1.3-.2.6-.2.9h-1l.1-8.9h1.1c0 1 0 1.7.2 2.2.1.4.3.6.5.6.1 0 .2 0 .3-.1.2-.1.4-.2.6-.2.3-.1.6-.3.9-.5.3-.2.7-.3 1-.5.9-.4 1.8-.9 2.6-1.4.9-.4 2-1.1 3.4-1.8-2.4-1.5-4.3-2.8-5.7-3.6-1.3-.8-2.2-1.2-2.4-1.2-.2 0-.4.1-.6.2-.1.1-.2.3-.3.6-.1.3-.2.6-.2.9 0 .3 0 .7-.1.9h-1.1l.2-7.2 1 .1zM126.2 237.3c-.8 0-1.4.3-2 1-.6.6-.9 1.4-.9 2.4 0 .9.3 1.6.8 2.2.5.6 1.2.8 2 .8s1.4-.3 2-.8c.5-.6.8-1.4.8-2.3 0-1-.2-1.8-.8-2.3-.5-.7-1.1-1-1.9-1zM139.4 237.3c-.7 0-1.4.3-1.9 1-.6.8-.9 2.4-.9 4.8 0 2.3.3 3.8.8 4.6.6.8 1.2 1.2 2 1.2s1.4-.4 2-1.2c.5-.8.8-2.3.8-4.6s-.3-3.9-.8-4.6c-.6-.8-1.2-1.2-2-1.2z"/><path class="st0" d="M217.2 100.4h-166c-.2 0-.2.3-.3.5-.2 21.3.1 43.3 0 64.1-.2 21 2.9 40.1 9.7 55 6.7 14.8 17.7 25.5 30.2 34.4 12.7 9 28.6 13.9 43.3 21.4 14.6-7.6 30.5-12.4 43.1-21.6 12.5-9 23.8-19.4 30.4-34.4 6.6-15 9.6-33.5 9.6-55.2.1-20.9.3-43.1 0-64.2zM89.3 194.6c11.3-5.9 22.6-12.3 31.4-20.8-5.9 1.4-10.5 1.6-15.4 1.5.8-1.3 2.1-2.1 3.2-3.1 7.4-7 15.8-13.6 19.8-24.2-2.7.9-6.2 1.7-9.9 1.7 7.3-9.3 13-20.2 16-33.7h.4c3 13.5 8.8 24.3 16 33.7-3.2-.2-6-.3-9.7-1.8.2 1.6 1 3.1 1.7 4.4 3.6 6.6 9.4 11.8 14.7 16.9 2.2 2 4.5 3.8 6.4 6.1-6 .5-8.7.1-15.2-1.7 2.1 2.5 4.9 4.4 7.5 6.4 7 5.7 15.4 10 23.9 14.5.7.3 1.7.6 2 1.5-7 1-14.8.5-22.4-2-9.3-3.2-18-3.4-24.5 2.7-7.2-5.8-14.4-5.9-26-2.8-6.6 2.1-15.2 3-22.2 2.1.4-.9 1.5-1 2.3-1.4zm25.6 55.4h-1.7v-11c-.4.5-1 .8-1.7 1.1-.6.4-1.2.7-1.8 1v-1.6c1-.5 1.8-1.1 2.5-1.7.7-.7 1.2-1.3 1.5-1.9h1.1l.1 14.1zm15.4-3c-.4 1.1-1 1.9-1.8 2.4-.8.6-1.7.9-2.7.9-1.1 0-2-.3-2.7-.9-.7-.6-1.1-1.4-1.3-2.6l1.6-.2c.2.8.5 1.4.9 1.7.4.4.9.5 1.5.5.5 0 1-.1 1.4-.4.4-.2.7-.6 1-1 .3-.4.5-1 .6-1.6.2-.7.3-1.4.3-2.1v-.4c-.3.6-.8 1.1-1.4 1.4-.6.3-1.3.5-1.9.5-1.2 0-2.2-.5-3-1.3-.8-.9-1.3-2-1.3-3.4s.4-2.6 1.3-3.4c.9-.9 1.9-1.3 3.1-1.3 1 0 1.8.2 2.6.7.7.5 1.3 1.2 1.8 2.2.3.9.6 2.2.6 3.9 0 1.9-.3 3.3-.6 4.4zm13.2.1c-.3 1-.8 1.8-1.5 2.3-.7.6-1.5.9-2.6.9-1.4 0-2.4-.5-3.2-1.5-.9-1.1-1.4-3.1-1.4-5.7 0-1.7.2-3 .5-4 .4-1 .9-1.8 1.5-2.3.7-.6 1.5-.9 2.6-.9.8 0 1.4.1 2 .4.6.3 1 .7 1.4 1.3.4.6.6 1.3.9 2.1.2.8.3 1.9.3 3.3 0 1.7-.2 3.1-.5 4.1zm13.6 2.9h-9.3c0-.4.1-.9.2-1.2.2-.6.6-1.3 1.2-1.9.5-.6 1.3-1.3 2.2-2.2 1.5-1.3 2.5-2.2 3.1-3 .5-.7.8-1.4.8-2.1 0-.7-.3-1.3-.8-1.7-.5-.5-1.1-.7-1.9-.7-.8 0-1.5.3-2 .8s-.7 1.2-.7 2l-1.8-.2c.2-1.3.6-2.3 1.4-3 .8-.7 1.9-1 3.2-1 1.4 0 2.4.3 3.2 1.1.8.8 1.2 1.7 1.2 2.8 0 .5-.1 1.1-.3 1.7-.2.5-.6 1.1-1.1 1.7-.5.6-1.4 1.4-2.7 2.4-1 .9-1.7 1.5-2 1.8-.3.3-.5.6-.7 1h6.9l-.1 1.7zm-14.3-39.2l.4 3.7h-16.1l.5-3.7H77.1l6.3-7.7c5.3-.3 15.7-1.6 24.5-4.9 17.2-6.4 27.6 2.4 27.6 2.4 8.2-6.9 18.5-5.5 28.1-1.9 9 3.3 22.7 4.3 22.7 4.3l5.9 7.9-49.4-.1z"/></svg>